<?xml version="1.0" encoding="utf-8"?>
<!-- Generator: Adobe Illustrator 26.4.1, SVG Export Plug-In . SVG Version: 6.00 Build 0)  -->
<svg version="1.1" id="Layer_1" xmlns="http://www.w3.org/2000/svg" xmlns:xlink="http://www.w3.org/1999/xlink" x="0px" y="0px"
	 viewBox="0 0 114.9 28.2" style="enable-background:new 0 0 114.9 28.2;" xml:space="preserve">
<style type="text/css">
	.st0{fill:none;stroke:#FA496E;stroke-width:7;stroke-miterlimit:10;}
	.st1{enable-background:new    ;}
	.st2{fill:#FFFFFF;}
</style>
<circle class="st0" cx="13.6" cy="14" r="10.1"/>
<g class="st1">
	<path class="st2" d="M38.2,6.8h5.4c0.4,0,0.7,0,1,0.1C45.7,7,46.5,7.5,47,8.2c0.6,0.7,0.8,1.7,0.8,2.8c0,0.9-0.2,1.7-0.6,2.3
		s-0.9,1.2-1.6,1.5l2.4,4.9h-2.5l-2.2-4.5h-3.1v4.5h-2.2V6.8z M43.4,13.2c0.3,0,0.6,0,0.8-0.1c0.5-0.1,0.9-0.4,1.1-0.8
		c0.2-0.4,0.3-0.8,0.3-1.3c0-0.5-0.1-0.9-0.3-1.3c-0.2-0.4-0.6-0.7-1.1-0.8c-0.2-0.1-0.5-0.1-0.8-0.1h-3.1v4.4H43.4z"/>
</g>
<g class="st1">
	<path class="st2" d="M51.5,19.4c-0.8-0.4-1.3-1-1.8-1.8c-0.4-0.8-0.6-1.6-0.6-2.6c0-1,0.2-2,0.6-2.8c0.4-0.8,1-1.4,1.7-1.8
		C52.2,10,53,9.8,54,9.8c0.9,0,1.7,0.2,2.4,0.6c0.7,0.4,1.2,1,1.6,1.8c0.4,0.8,0.5,1.7,0.5,2.7c0,0.2,0,0.4,0,0.6h-7
		c0.1,0.8,0.3,1.4,0.8,1.8c0.4,0.4,1,0.6,1.7,0.6c0.5,0,1-0.1,1.4-0.4c0.4-0.2,0.7-0.6,0.9-1l2.1,0.6c-0.2,0.6-0.6,1.1-1,1.5
		c-0.4,0.4-0.9,0.7-1.5,1c-0.6,0.2-1.2,0.3-1.8,0.3C53.1,20,52.3,19.8,51.5,19.4z M56.3,13.9c-0.1-0.8-0.3-1.3-0.7-1.7
		c-0.4-0.4-0.9-0.5-1.6-0.5c-1.4,0-2.3,0.7-2.5,2.2H56.3z"/>
	<path class="st2" d="M71.3,12.3c-0.3-0.4-0.8-0.6-1.3-0.6c-0.3,0-0.7,0.1-0.9,0.2s-0.5,0.4-0.7,0.7c-0.2,0.3-0.2,0.7-0.2,1.1v6
		h-2.2v-5.9c0-0.7-0.2-1.2-0.5-1.6c-0.3-0.4-0.8-0.6-1.3-0.6c-0.4,0-0.7,0.1-1,0.3c-0.3,0.2-0.5,0.4-0.6,0.7
		c-0.1,0.3-0.2,0.7-0.2,1.1v6h-2.2V10H62v1.1c0.3-0.4,0.7-0.7,1.2-1c0.5-0.2,1-0.3,1.6-0.3c0.7,0,1.2,0.1,1.7,0.4
		c0.5,0.3,0.9,0.7,1.1,1.1c0.3-0.5,0.7-0.9,1.2-1.1c0.5-0.3,1.1-0.4,1.7-0.4c0.7,0,1.3,0.1,1.8,0.4s0.9,0.7,1.1,1.2
		c0.3,0.5,0.4,1.1,0.4,1.8v6.5h-2.2v-5.9C71.8,13.2,71.6,12.7,71.3,12.3z"/>
	<path class="st2" d="M77.8,19.4c-0.8-0.4-1.3-1-1.8-1.8c-0.4-0.8-0.6-1.6-0.6-2.6c0-1,0.2-2,0.6-2.8c0.4-0.8,1-1.4,1.7-1.8
		c0.7-0.4,1.6-0.6,2.5-0.6c0.9,0,1.7,0.2,2.4,0.6c0.7,0.4,1.2,1,1.6,1.8c0.4,0.8,0.5,1.7,0.5,2.7c0,0.2,0,0.4,0,0.6h-7
		c0.1,0.8,0.3,1.4,0.8,1.8s1,0.6,1.7,0.6c0.5,0,1-0.1,1.4-0.4c0.4-0.2,0.7-0.6,0.9-1l2.1,0.6c-0.2,0.6-0.6,1.1-1,1.5
		c-0.4,0.4-0.9,0.7-1.5,1C81.6,19.9,81,20,80.4,20C79.4,20,78.6,19.8,77.8,19.4z M82.6,13.9c-0.1-0.8-0.3-1.3-0.7-1.7
		c-0.4-0.4-0.9-0.5-1.6-0.5c-1.4,0-2.3,0.7-2.5,2.2H82.6z"/>
	<path class="st2" d="M88.2,19.4c-0.7-0.4-1.2-1.1-1.6-1.8c-0.4-0.8-0.5-1.7-0.5-2.6c0-1,0.2-1.9,0.6-2.6c0.4-0.8,0.9-1.4,1.6-1.8
		c0.7-0.4,1.5-0.7,2.4-0.7c0.9,0,1.7,0.2,2.4,0.7V6.8h2.2v13h-1.9V19c-0.7,0.7-1.7,1-2.8,1C89.7,20,88.9,19.8,88.2,19.4z M88.7,16.5
		c0.2,0.5,0.5,0.9,0.8,1.1c0.4,0.3,0.8,0.4,1.4,0.4c0.8,0,1.4-0.3,1.8-0.9c0.4-0.6,0.6-1.3,0.6-2.3c0-1-0.2-1.8-0.6-2.3
		c-0.4-0.6-1-0.9-1.8-0.9c-0.6,0-1,0.1-1.4,0.4c-0.4,0.3-0.7,0.7-0.9,1.1c-0.2,0.5-0.3,1-0.3,1.6C88.4,15.5,88.5,16.1,88.7,16.5z"/>
	<path class="st2" d="M100.5,19.7L96.5,10h2.3l2.7,7l2.6-7h2.2l-5.4,14h-2L100.5,19.7z"/>
</g>
</svg>
